<svg xmlns="http://www.w3.org/2000/svg" width="33.859" height="40.865"><g><path d="M 28.9 35.907 C 25.641 39.166 21.194 40.955 16.586 40.861 C 11.978 40.767 7.607 38.798 4.483 35.409 C 3.645 34.499 2.908 33.501 2.284 32.432 C 2.536 32.515 2.79 32.593 3.044 32.667 L 3.05 32.667 C 3.312 32.744 3.572 32.817 3.831 32.886 C 3.897 32.901 3.958 32.92 4.021 32.94 C 4.267 33.002 4.513 33.064 4.765 33.117 C 4.833 33.137 4.903 33.154 4.975 33.166 C 5.163 33.212 5.357 33.252 5.549 33.29 C 5.682 33.318 5.823 33.344 5.951 33.37 C 6.148 33.407 6.343 33.441 6.541 33.472 C 6.671 33.496 6.793 33.515 6.927 33.53 C 7.093 33.562 7.263 33.585 7.433 33.605 C 7.582 33.629 7.732 33.648 7.881 33.663 C 8.088 33.691 8.295 33.713 8.508 33.728 C 8.824 33.763 9.14 33.789 9.456 33.805 C 9.576 33.815 9.697 33.824 9.823 33.827 C 9.95 33.83 10.086 33.842 10.219 33.846 C 10.499 33.858 10.779 33.864 11.059 33.864 C 11.3 33.87 11.544 33.864 11.785 33.861 C 11.946 33.863 12.107 33.859 12.267 33.848 C 12.447 33.848 12.622 33.84 12.798 33.83 C 12.9 33.827 12.999 33.821 13.095 33.812 C 13.33 33.799 13.565 33.781 13.799 33.762 C 13.919 33.753 14.043 33.741 14.163 33.725 C 14.336 33.713 14.507 33.697 14.673 33.67 C 14.838 33.655 15.002 33.633 15.161 33.609 C 15.306 33.593 15.451 33.571 15.591 33.55 C 15.776 33.526 15.958 33.495 16.138 33.464 C 16.318 33.432 16.508 33.402 16.694 33.364 C 16.78 33.352 16.865 33.336 16.948 33.315 C 17.207 33.265 17.466 33.21 17.723 33.151 C 18.044 33.083 18.363 33.006 18.677 32.92 C 19.926 32.595 21.152 32.185 22.344 31.692 C 22.494 31.633 22.644 31.572 22.791 31.504 C 22.956 31.438 23.115 31.364 23.276 31.29 C 23.409 31.232 23.546 31.17 23.678 31.105 C 23.826 31.037 23.974 30.963 24.12 30.892 C 24.65 30.632 25.173 30.358 25.686 30.061 C 25.816 29.987 25.942 29.916 26.069 29.839 C 26.151 29.793 26.231 29.746 26.31 29.696 L 26.7 29.456 C 27.229 29.124 27.747 28.775 28.253 28.409 L 28.596 28.159 L 28.75 28.041 C 28.886 27.942 29.019 27.841 29.149 27.735 C 29.348 27.582 29.543 27.425 29.735 27.265 C 29.79 27.225 29.837 27.183 29.887 27.139 C 30.155 26.917 30.417 26.69 30.675 26.457 C 30.767 26.377 30.857 26.293 30.948 26.207 C 31.395 25.798 31.826 25.374 32.243 24.935 C 32.316 24.861 32.388 24.79 32.459 24.712 C 32.706 24.446 32.946 24.181 33.181 23.91 L 33.191 23.9 C 33.249 23.835 33.308 23.77 33.364 23.702 C 33.521 23.52 33.672 23.337 33.827 23.155 C 33.833 23.15 33.837 23.143 33.839 23.136 C 33.877 23.931 33.859 24.728 33.785 25.521 L 33.785 25.539 C 33.418 29.459 31.69 33.126 28.901 35.906 Z" fill="rgb(192,255,115)"></path><path d="M 31.822 25.374 C 24.299 32.903 13.253 35.702 3.051 32.664 C 3.043 32.665 3.034 32.663 3.026 32.659 L 3.02 32.659 C 2.775 32.584 2.529 32.508 2.284 32.429 C 1.543 31.155 0.974 29.789 0.592 28.365 C 0.316 27.336 0.136 26.283 0.055 25.22 C 0.277 25.214 0.496 25.205 0.718 25.193 L 0.724 25.193 C 0.73 25.191 0.735 25.191 0.74 25.193 L 0.743 25.193 C 7.88 24.817 14.623 21.808 19.668 16.747 C 21.846 14.571 23.665 12.064 25.058 9.319 L 25.058 9.316 C 25.064 9.31 25.067 9.3 25.073 9.294 L 25.067 9.294 C 25.071 9.287 25.075 9.281 25.08 9.275 C 25.206 9.025 25.33 8.772 25.447 8.518 L 28.9 11.972 C 31.885 14.947 33.648 18.931 33.843 23.14 C 33.209 23.919 32.535 24.665 31.823 25.374 Z" fill="rgb(27,49,5)"></path><path d="M 19.668 16.747 C 19.461 16.954 19.251 17.157 19.041 17.356 C 18.905 17.486 18.767 17.609 18.631 17.736 C 17.935 18.37 17.207 18.967 16.449 19.527 C 16.264 19.669 16.076 19.801 15.884 19.938 C 15.704 20.068 15.526 20.191 15.341 20.315 C 15.297 20.345 15.251 20.373 15.208 20.405 C 13.935 21.255 12.595 22 11.201 22.632 C 11.149 22.658 11.095 22.682 11.041 22.705 C 10.859 22.789 10.676 22.865 10.494 22.944 C 10.287 23.033 10.077 23.119 9.866 23.2 C 9.656 23.28 9.431 23.37 9.209 23.453 C 9.006 23.527 8.799 23.598 8.599 23.672 C 8.379 23.746 8.169 23.817 7.956 23.882 C 7.743 23.946 7.526 24.015 7.31 24.076 C 7.094 24.138 6.877 24.2 6.664 24.259 C 6.451 24.317 6.227 24.373 6.008 24.423 C 5.788 24.473 5.573 24.525 5.351 24.571 C 4.479 24.762 3.599 24.912 2.712 25.022 C 2.055 25.1 1.396 25.158 0.735 25.195 L 0.723 25.195 L 0.721 25.196 L 0.719 25.196 L 0.718 25.195 C 0.495 25.207 0.272 25.216 0.048 25.222 C -0.021 24.308 -0.016 23.39 0.063 22.477 C 0.401 18.505 2.134 14.782 4.956 11.967 L 16.931 0 L 25.447 8.515 C 25.329 8.769 25.208 9.019 25.079 9.266 L 25.079 9.272 C 25.074 9.278 25.07 9.284 25.066 9.291 L 25.069 9.294 L 25.06 9.303 C 25.057 9.306 25.054 9.311 25.054 9.316 L 25.054 9.319 C 25.046 9.333 25.039 9.349 25.033 9.365 L 24.95 9.522 C 24.73 9.954 24.493 10.381 24.242 10.804 C 23.764 11.627 23.245 12.426 22.689 13.198 C 22.599 13.318 22.516 13.439 22.423 13.556 C 22.204 13.85 21.981 14.14 21.75 14.428 C 21.667 14.538 21.58 14.644 21.487 14.746 C 20.913 15.441 20.305 16.11 19.667 16.748 Z" fill="rgb(192,255,115)"></path><path d="M 0.592 28.367 C 0.316 27.338 0.136 26.285 0.055 25.223 C 7.436 25.01 14.455 21.977 19.668 16.747 C 22.058 14.36 24.014 11.574 25.447 8.515 C 25.447 8.515 22.429 22.295 0.591 28.367 Z M 4.483 35.41 C 3.645 34.5 2.908 33.501 2.285 32.432 C 12.675 35.834 24.094 33.104 31.822 25.372 C 32.533 24.661 33.207 23.914 33.842 23.135 C 33.842 23.135 25.419 37.979 4.484 35.409 Z" fill="rgb(0,0,0)" opacity="0.15"></path><path d="M 30.473 26.922 L 29.62 27.662 C 29.32 27.913 29.024 28.21 28.678 28.451 L 27.621 29.235 C 27.266 29.516 26.861 29.741 26.466 30.001 C 26.065 30.274 25.648 30.524 25.218 30.749 C 24.781 30.981 24.343 31.215 23.894 31.457 C 23.434 31.67 22.963 31.873 22.485 32.081 C 22.015 32.303 21.515 32.457 21.024 32.639 L 20.283 32.905 C 20.033 32.989 19.776 33.053 19.523 33.128 C 19.016 33.258 18.513 33.428 17.997 33.523 C 17.484 33.628 16.971 33.733 16.462 33.835 C 15.462 33.997 14.453 34.107 13.442 34.163 C 12.496 34.218 11.549 34.225 10.602 34.185 L 9.289 34.075 C 9.079 34.057 8.872 34.035 8.669 34.017 C 8.468 33.989 8.267 33.955 8.075 33.925 C 7.686 33.863 7.319 33.804 6.964 33.745 C 6.608 33.687 6.284 33.591 5.972 33.526 C 5.354 33.371 4.814 33.257 4.378 33.106 C 3.925 32.964 3.474 32.816 3.025 32.661 C 3.033 32.665 3.042 32.667 3.05 32.667 C 13.947 35.912 25.735 32.485 33.194 23.904 C 33.126 23.99 32.81 24.38 32.298 24.991 C 32.143 25.164 32.002 25.356 31.795 25.563 L 31.177 26.199 L 30.472 26.922 Z M 0.74 25.192 L 0.743 25.192 C 0.733 25.195 0.73 25.192 0.724 25.192 C 0.73 25.19 0.735 25.19 0.74 25.192 Z M 25.07 9.294 C 25.066 9.302 25.062 9.31 25.058 9.318 L 25.058 9.315 C 25.058 9.305 25.067 9.3 25.07 9.29 C 25.074 9.283 25.078 9.277 25.082 9.272 Z M 19.661 17.285 C 19.008 17.949 18.318 18.577 17.595 19.165 C 16.852 19.774 16.078 20.344 15.275 20.873 C 14.868 21.139 14.46 21.399 14.04 21.633 L 13.417 21.992 L 12.78 22.32 C 12.567 22.43 12.357 22.539 12.147 22.645 C 11.934 22.74 11.717 22.839 11.507 22.932 C 11.081 23.13 10.655 23.297 10.232 23.46 C 9.812 23.633 9.392 23.775 8.978 23.911 C 8.574 24.043 8.165 24.165 7.754 24.276 C 7.359 24.393 6.97 24.492 6.587 24.572 C 6.207 24.656 5.839 24.737 5.484 24.797 C 5.129 24.858 4.79 24.924 4.464 24.964 C 4.14 25.004 3.829 25.039 3.538 25.069 C 2.955 25.128 2.444 25.149 2.028 25.184 C 1.296 25.199 0.842 25.196 0.743 25.196 C 7.88 24.819 14.623 21.809 19.668 16.747 C 21.846 14.571 23.665 12.064 25.058 9.319 C 25.036 9.374 24.996 9.461 24.941 9.592 C 24.854 9.797 24.721 10.099 24.536 10.473 C 24.025 11.515 23.443 12.521 22.794 13.483 C 22.363 14.13 21.899 14.755 21.404 15.355 C 20.862 16.031 20.28 16.676 19.662 17.285 Z" fill="rgb(0,0,0)" opacity="0.25"></path><path d="M 31.822 25.374 C 24.298 32.903 13.253 35.702 3.051 32.664 C 3.171 32.686 3.659 32.779 4.421 32.938 C 4.86 33.048 5.411 33.111 6.031 33.201 C 6.652 33.311 7.362 33.359 8.128 33.426 C 8.323 33.442 8.521 33.46 8.718 33.481 C 8.919 33.484 9.123 33.491 9.33 33.494 C 9.747 33.509 10.176 33.518 10.618 33.534 C 11.498 33.494 12.428 33.503 13.385 33.392 C 14.345 33.337 15.319 33.151 16.317 33.006 L 17.802 32.688 C 18.302 32.588 18.787 32.418 19.28 32.289 C 19.527 32.221 19.777 32.162 20.018 32.082 L 20.741 31.829 C 21.22 31.659 21.708 31.517 22.168 31.303 C 22.628 31.109 23.088 30.914 23.546 30.723 C 23.987 30.503 24.426 30.285 24.856 30.074 C 25.293 29.876 25.689 29.611 26.094 29.392 C 26.495 29.157 26.9 28.954 27.258 28.697 C 27.991 28.204 28.701 27.761 29.3 27.279 C 29.61 27.051 29.906 26.828 30.187 26.615 C 30.46 26.386 30.715 26.167 30.953 25.963 L 31.627 25.388 C 31.827 25.224 32.003 25.03 32.17 24.876 C 32.507 24.549 32.847 24.226 33.19 23.906 C 32.758 24.407 32.3 24.896 31.822 25.374 Z M 19.668 16.747 C 14.623 21.808 7.88 24.818 0.743 25.195 C 0.733 25.198 0.73 25.195 0.724 25.195 C 0.73 25.193 0.735 25.193 0.74 25.195 C 0.842 25.179 1.293 25.111 2.019 25.015 C 2.427 24.941 2.924 24.87 3.489 24.75 C 4.054 24.63 4.693 24.49 5.376 24.308 C 5.722 24.228 6.074 24.123 6.439 24.011 C 6.803 23.9 7.183 23.792 7.566 23.656 C 7.952 23.53 8.344 23.396 8.74 23.236 C 9.136 23.076 9.543 22.934 9.941 22.751 C 10.349 22.578 10.76 22.402 11.165 22.195 C 11.572 22.004 11.985 21.797 12.387 21.577 L 13.005 21.249 L 13.607 20.894 C 14.012 20.662 14.404 20.406 14.794 20.147 C 15.579 19.64 16.338 19.094 17.067 18.51 C 19.042 16.946 20.829 15.159 22.392 13.184 C 23.106 12.288 23.771 11.355 24.384 10.388 C 24.749 9.82 24.98 9.44 25.054 9.317 C 25.054 9.307 25.064 9.301 25.067 9.292 C 25.071 9.285 25.075 9.279 25.079 9.273 C 25.079 9.273 25.076 9.283 25.07 9.295 C 23.675 12.049 21.852 14.564 19.668 16.747 Z" fill="rgb(255,255,255)" opacity="0.4"></path><path d="M 28.9 35.907 C 22.29 42.517 11.573 42.517 4.962 35.907 L 5.291 36.181 C 5.504 36.369 5.834 36.613 6.248 36.928 C 6.671 37.234 7.197 37.585 7.814 37.957 C 8.512 38.355 9.234 38.713 9.974 39.028 C 10.849 39.389 11.751 39.681 12.673 39.9 C 13.697 40.135 14.738 40.281 15.786 40.338 C 16.905 40.393 18.026 40.342 19.134 40.183 C 20.278 40.026 21.4 39.747 22.483 39.349 C 23.571 38.961 24.615 38.461 25.599 37.857 C 26.553 37.271 27.448 36.595 28.273 35.839 C 29.047 35.126 29.756 34.347 30.393 33.51 C 30.963 32.755 31.471 31.956 31.912 31.12 C 32.287 30.407 32.615 29.67 32.894 28.914 C 33.106 28.327 33.29 27.73 33.447 27.126 C 33.574 26.622 33.663 26.218 33.71 25.943 C 33.746 25.733 33.771 25.603 33.784 25.547 C 33.415 29.464 31.687 33.129 28.9 35.907 Z" fill="rgb(0,0,0)" opacity="0.25"></path><path d="M 18.593 2.2 L 16.947 0.632 L 14.747 2.905 C 13.917 3.767 13.064 4.614 12.221 5.469 C 11.38 6.323 10.533 7.17 9.679 8.011 C 8.826 8.851 7.982 9.704 7.115 10.538 L 5.821 11.788 L 5.188 12.41 C 4.978 12.629 4.755 12.835 4.567 13.049 C 4.167 13.474 3.793 13.919 3.444 14.386 C 3.092 14.856 2.767 15.346 2.459 15.847 C 2.153 16.348 1.875 16.866 1.625 17.398 C 1.371 17.934 1.143 18.482 0.942 19.04 C 0.548 20.157 0.256 21.308 0.068 22.478 C 0.406 18.507 2.139 14.783 4.961 11.969 L 16.931 0 L 24.653 7.722 C 23.281 6.523 21.926 5.303 20.591 4.062 L 18.593 2.199 Z" fill="rgb(255,255,255)" opacity="0.4"></path></g></svg>